<?xml version="1.0" encoding="utf-8"?>
<!-- Generator: Adobe Illustrator 21.1.0, SVG Export Plug-In . SVG Version: 6.00 Build 0)  -->
<svg version="1.1" id="Layer_1" xmlns="http://www.w3.org/2000/svg" xmlns:xlink="http://www.w3.org/1999/xlink" x="0px" y="0px"
	 viewBox="0 0 256 256" style="enable-background:new 0 0 256 256;" xml:space="preserve">
<style type="text/css">
	.st0{fill:url(#SVGID_1_);}
	.st1{fill:url(#SVGID_2_);}
	.st2{fill:#FFFFFF;}
</style>
<linearGradient id="SVGID_1_" gradientUnits="userSpaceOnUse" x1="-1.818989e-12" y1="256" x2="255.9234" y2="7.660824e-02">
	<stop  offset="0" style="stop-color:#07CEDD"/>
	<stop  offset="0.2998" style="stop-color:#0BB8CD"/>
	<stop  offset="0.5" style="stop-color:#0CAFC7"/>
	<stop  offset="0.5578" style="stop-color:#0CABC3"/>
	<stop  offset="0.7676" style="stop-color:#0EA0B8"/>
	<stop  offset="1" style="stop-color:#0E9DB4"/>
</linearGradient>
<rect x="0" y="0.1" class="st0" width="255.9" height="255.9"/>
<g>
	<linearGradient id="SVGID_2_" gradientUnits="userSpaceOnUse" x1="125.8967" y1="128.0383" x2="193.1005" y2="128.0383">
		<stop  offset="0" style="stop-color:#0CAFC7"/>
		<stop  offset="0.6255" style="stop-color:#FFFFFF"/>
	</linearGradient>
	<path class="st1" d="M159.6,94.4c-13.2,0-23.9,7.1-29.5,17.3c-1.4,2.5-2.4,5.2-3.1,8c-0.2,0.6-0.3,1.6-0.5,2.2
		c-0.4,2.1-0.6,3.9-0.6,6.2v0.3c0,4.9,1.1,9.6,3,13.9c3.2-5.1,5.9-11.5,7.4-19.7l-0.1,0.4l0,0c2-11.3,10.9-20.1,23.1-20.1
		c13.6,0,23.9,11.3,23.9,25.2v0.3c0,13.6-9.7,24.8-23.7,24.8c-10.3,0-18.6-6.4-22.1-15.5c-1.5,3.9-3.4,7.2-5.5,10.1
		c5.9,8.4,15.6,14,27.3,14c19.4,0,33.8-15.5,33.8-33.7v-0.2C193.1,109.6,178.9,94.4,159.6,94.4z"/>
	<path class="st2" d="M136.3,122.6c2.1-11.2,10.9-19.7,23.1-19.7c11.8,0,21.1,8.5,23.4,19.7h10c-2.4-15.8-15.7-28.2-33.1-28.2
		c-17.2,0-30.3,12.1-33.1,27.5c-5,25.2-21.8,30.1-28.2,31.1c-0.6,0-1.3,0.1-2,0.1c-8.1,0-14.9-4-19.2-10.2
		c-2.8-4.2-4.5-9.3-4.5-14.9v-0.2c0-13.8,10-24.9,23.1-24.9c7.7,0,13,3.5,17.6,7.7c0.7,0.6,1.9,1.1,3.1,1.1c2.5,0,4.6-2,4.6-4.6v0v0
		c0-0.4,0-0.7-0.1-1c0,0,0,0,0,0c-0.2-1-0.8-1.8-1.4-2.3c-2.6-2.4-5.6-4.5-9.1-6.2c-4.1-1.9-8.8-3.2-14.6-3.2
		c-11.6,0-21.5,5.9-27.4,14.7c-0.1,0.1-0.1,0.2-0.2,0.3c-0.1,0.1-0.2,0.3-0.3,0.4c-3.3,5.3-5.2,11.6-5.2,18.2v0v0.2v0
		c0,1.1,0.1,2.2,0.2,3.3c0,0.3,0.1,0.6,0.1,0.9c0.1,0.8,0.2,1.6,0.3,2.3c0.1,0.5,0.2,0.9,0.3,1.3c0.1,0.6,0.3,1.2,0.4,1.8
		c0.2,0.5,0.4,1.1,0.6,1.6c0.2,0.5,0.3,1,0.5,1.4c0.3,0.6,0.6,1.2,0.8,1.8c0.2,0.4,0.3,0.7,0.5,1.1c0.4,0.7,0.7,1.3,1.1,2
		c0.2,0.3,0.3,0.5,0.5,0.8c0.5,0.7,1,1.4,1.5,2.1c0.1,0.2,0.2,0.3,0.3,0.5c0.6,0.7,1.2,1.4,1.8,2.1c0.1,0.1,0.2,0.2,0.3,0.3
		c0.7,0.7,1.4,1.4,2.2,2.1c0,0,0.1,0.1,0.1,0.1c0.8,0.7,1.6,1.3,2.5,1.9c0,0,0,0,0,0c5.2,3.6,11.4,5.8,18.4,5.9c0,0,0.1,0,0.1,0l0,0
		c0,0,0.1,0,0.3,0c0,0,0.1,0,0.1,0c1.2,0,2.4-0.1,3.5-0.2c0.3,0,0.6-0.1,1-0.1c0.8-0.1,1.6-0.2,2.4-0.4c0.3-0.1,0.6-0.1,0.9-0.2
		c0.9-0.2,1.8-0.4,2.7-0.7c0.5-0.2,0.9-0.3,1.4-0.5c0.4-0.1,0.8-0.3,1.2-0.5c0.5-0.2,1.1-0.5,1.6-0.7c0.1,0,0.2-0.1,0.3-0.1
		c1.3-0.6,2.5-1.4,3.7-2.1c0,0,0,0,0,0C123.3,151.1,132.8,141.4,136.3,122.6L136.3,122.6z"/>
</g>
</svg>
